<svg width="1438" height="798" viewBox="0 0 1438 798" fill="none" xmlns="http://www.w3.org/2000/svg">
<g opacity="0.07">
<path d="M1312.47 272.985C1182.93 83.9868 965.442 -40 719 -40C321.907 -40 0 281.907 0 679C0 736.771 6.81372 792.95 19.6807 846.779L385.824 480.636C420.922 445.538 477.828 445.538 512.926 480.636L808.875 776.585L1312.47 272.985Z" fill="#8794BA"/>
<path d="M1397.93 441.734L872.426 967.239C837.328 1002.34 780.422 1002.34 745.324 967.239L449.375 671.29L91.1038 1029.56C214.1 1249.39 449.195 1398 719 1398C1116.09 1398 1438 1076.09 1438 679C1438 595.861 1423.89 516.017 1397.93 441.734Z" fill="#8794BA"/>
</g>
</svg>
