<svg width="1570" height="1966" viewBox="0 0 1570 1966" fill="none" xmlns="http://www.w3.org/2000/svg">
<g opacity="0.07">
<path d="M1844.54 447.483C1663.46 183.306 1359.47 10 1015 10C459.954 10 10 459.953 10 1015C10 1095.75 19.524 1174.28 37.5092 1249.52L549.295 737.732C598.354 688.672 677.896 688.672 726.955 737.732L1140.62 1151.4L1844.54 447.483Z" fill="#8794BA"/>
<path d="M1963.99 683.356L1229.46 1417.89C1180.4 1466.95 1100.85 1466.95 1051.79 1417.89L638.125 1004.22L137.343 1505.01C309.264 1812.28 637.874 2020 1015 2020C1570.05 2020 2020 1570.05 2020 1015C2020 898.79 2000.28 787.187 1963.99 683.356Z" fill="#8794BA"/>
</g>
</svg>
